<svg xmlns="http://www.w3.org/2000/svg" aria-labelledby="title" role="image" viewBox="0 0 567 84">
  <title>Charlotte Tilbury</title>
  <path fill="#3a080a" fill-rule="evenodd" d="M136.7 40.1a33 33 0 0 1-4.7 2.2l-1.8.8a19.8 19.8 0 0 0-8 6.2 8.2 8.2 0 0 0-.6 7.5 6.3 6.3 0 0 0 6 3.6c4.6 0 8.1-2.4 9.3-5.8l-.2-5v-9.4ZM126 65.5a21 21 0 0 1-2.3-.2c-4.1-.4-7.6-1.2-9.7-3.8a12.6 12.6 0 0 1-2.4-10.3c1-5.5 5.8-7.3 9.9-9 2-1 4.4-1.8 6.2-2.5l2.3-.8a19.1 19.1 0 0 0 5.3-2.6c.9-.8 1.3-2.9 1.1-4.2-.2-1.7-1.7-5.4-5.6-5.4-6.8 0-8.4 5.7-9.3 9l-7.5-3a17.7 17.7 0 0 1 16.5-10.3 18.5 18.5 0 0 1 7.2 1.4c6 2.6 8.7 6.6 8.4 13.7v15.3c0 2.2 0 7.2 1.7 8.4 1 .6 2.2.6 3.1 0v1.4a4 4 0 0 1-3.7 2.2 9.3 9.3 0 0 1-4-1 10.7 10.7 0 0 1-4.6-4 16 16 0 0 1-12.6 5.7Zm343.9 0c-9.8 0-15.2-4.6-15.2-14.8V23h9.2v27.4c0 7.3 4.4 9.2 7.7 9.2 4 0 7.7-1.5 9.4-5.4V23h9.2v41.5H481v-4.7c-3 3-6.7 5.5-11.2 5.5m-315-.8V23.1h9V29c3.5-3.7 7.5-6.2 13.1-6.1v8.7a13.4 13.4 0 0 0-4-.7c-4 0-7.2.4-9 3.5v30.2h-9.1Zm-57.2 0V40.8c0-6-.9-8.2-2.2-9.6-1.3-1.4-3.2-3-5.7-3-5 0-8.7 1.4-10.5 5.8v30.6h-9.1V.9h9.1v27.3c3-3.1 7.1-5.8 11.9-5.8s8.8.5 11.4 3.1c3 3 4.2 7.2 4.2 14.5v24.6h-9.1Zm84 0h9.2V.9h-9.1zm35.3-38c-8.4 0-12.7 9.2-12.7 17.2S208.5 61 216.9 61c4.8 0 7.7-3.7 9.4-6a19.8 19.8 0 0 0 3.3-11.3c0-8-4.4-17.1-12.7-17.1Zm0 38.8c-13.2 0-22-8-22-21.6 0-13.5 8.8-21.5 22-21.5s22 8 22 21.5c0 13.3-9 21.6-22 21.6Zm63.8 0c-6.8 0-10.8-3-10.8-9.8V27.4h-8c-1.6 0-3.4 0-5.5.2v27.1c0 4 1.2 5.4 3.7 5.4a12.5 12.5 0 0 0 6.8-1.9l1.4 1.8c-3 3.6-6 5.3-10.2 5.3-6.8 0-10.8-3-10.8-9.7V27.9l-7.9.4-3 .3 4-5.5h6.9v-7.5l9.1-8.2v15.7H270v-7.5l9-8.2V23h13l3 5-2.4-.1c-2-.2-6.4-.4-13.5-.4v27.2c0 3.9 1.2 5.2 3.7 5.3a12.5 12.5 0 0 0 6.9-1.8L291 60c-2.9 3.6-6 5.4-10.2 5.4M324 35.7c-1.3-7.4-6.2-9.2-9-9.2-6 0-9.3 3.8-11 9.2h20Zm-9 29.7c-12.9 0-21.5-8.3-21.5-22.2 0-12.7 9-20.9 21.4-20.9 10.2 0 17.7 6 18.5 16.2l.2 1.6h-30.7l-.1 3c0 9.7 5.3 16.7 14 16.7 7.3 0 11-2.8 13.4-5.1l1.8 1.6a19 19 0 0 1-17 9Zm77.6-.8h9V1h-9zm26.4-6.8a19 19 0 0 0 8.8 2.2c8.3 0 13.3-6.6 13.3-16.1s-5-16-13.2-16a16.9 16.9 0 0 0-9 2.5v27.5Zm10.8 7.6a19.6 19.6 0 0 1-10.8-3.7v2.9h-9.1V.9h9v25.3c3.2-2 7-3.7 10.7-3.7 12.2 0 20.8 8.2 20.8 21.4 0 13.4-8.2 21.5-20.6 21.5Zm65.9-42.2 9-.2v6c3-3.3 7.2-6 12.2-6l4.7 10.2s-4.3-2.3-7.9-2.3c-3.9 0-7.3.4-8.9 3.6v30l-9.1.3V23.3ZM375.4 64.6h8.6V26.8h-8.6zm-.4-48.2 4.7-7.2 4.7 7.2-4.7 7.2zm-24.4 48.2V5.9c-4.9 0-12.4.2-23.4.6l-4.4.2 5-5.8h52.8l.6.4 3.9 5.5-4-.3c-2.4-.1-11-.6-21.2-.6h-.2v58.7h-9.1ZM529 83.4l1.3-2.2c1-1.5 6.5-11.2 10.8-20.2l-17.5-38h10l12.1 29.7 13-29.7h7.5l-1.2 2.8-26 57.6h-10Zm-494-17A34.5 34.5 0 0 1 8.8 56.1a33.7 33.7 0 0 1 3.6-48.9 35.2 35.2 0 0 1 23-7.2C46 0 56 3.6 63.1 12.2l-7.4 5.6c-3.9-5.6-8.8-10.5-13.9-12a23 23 0 0 0-6.5-1A24 24 0 0 0 24 8c-6.7 3.8-11.1 11.9-12.6 20.3a30.6 30.6 0 0 0 6.9 24.5c4.4 5 10.5 8.5 17.4 8.5a23.1 23.1 0 0 0 4.3-.4c7.1-1.3 13.4-7.2 17.5-14.6l8.9 3.4a36.5 36.5 0 0 1-31.2 16.8"/>
</svg>
